<!DOCTYPE svg PUBLIC "-//W3C//DTD SVG 1.1//EN" "http://www.w3.org/Graphics/SVG/1.1/DTD/svg11.dtd">
<!-- Uploaded to: SVG Repo, www.svgrepo.com, Transformed by: SVG Repo Mixer Tools -->
<svg width="800px" height="800px" viewBox="0 0 64 64" xmlns="http://www.w3.org/2000/svg" xmlns:xlink="http://www.w3.org/1999/xlink" aria-hidden="true" role="img" class="iconify iconify--emojione-monotone" preserveAspectRatio="xMidYMid meet" fill="#000000" transform="matrix(-1, 0, 0, 1, 0, 0)">
<g id="SVGRepo_bgCarrier" stroke-width="0"/>
<g id="SVGRepo_tracerCarrier" stroke-linecap="round" stroke-linejoin="round"/>
<g id="SVGRepo_iconCarrier">
<path d="M22.625 2c0 15.834-8.557 30-20.625 30c12.068 0 20.625 14.167 20.625 30c0-15.833 8.557-30 20.625-30c-12.068 0-20.625-14.166-20.625-30" fill="#6366F1"/>
<path d="M47 32c0 7.918-4.277 15-10.313 15C42.723 47 47 54.084 47 62c0-7.916 4.277-15 10.313-15C51.277 47 47 39.918 47 32z" fill="#6366F1"/>
<path d="M51.688 2c0 7.917-4.277 15-10.313 15c6.035 0 10.313 7.084 10.313 15c0-7.916 4.277-15 10.313-15c-6.036 0-10.313-7.083-10.313-15" fill="#6366F1"/>
</g>
</svg>